<svg width="38" height="38" viewBox="0 0 38 38" fill="none" xmlns="http://www.w3.org/2000/svg">
<g clip-path="url(#clip0_2028_20)">
<path d="M23.788 34.8333C25.7721 34.8333 27.4746 34.7291 28.8971 34.413C30.3378 34.0928 31.5866 33.5347 32.5606 32.5606C33.5347 31.5865 34.0928 30.3378 34.413 28.8971C34.7292 27.4746 34.8333 25.7721 34.8333 23.788V19C34.8333 17.251 33.4156 15.8333 31.6667 15.8333H19C17.2511 15.8333 15.8333 17.251 15.8333 19V31.6667C15.8333 33.4156 17.2511 34.8333 19 34.8333H23.788Z" fill="#FF0000"/>
<path d="M3.16666 23.788C3.16666 25.7721 3.27091 27.4746 3.58707 28.8971C3.90722 30.3378 4.46533 31.5865 5.43943 32.5606C6.41353 33.5347 7.66227 34.0928 9.10282 34.413C9.24077 34.4435 9.37943 34.4723 9.51865 34.4992C11.2358 34.831 12.6667 33.3776 12.6667 31.6287V19C12.6667 17.251 11.2489 15.8333 9.5 15.8333H6.33333C4.58443 15.8333 3.16666 17.251 3.16666 19V23.788Z" fill="#FF0000"/>
<path d="M14.212 3.16667C12.2278 3.16667 10.5253 3.27092 9.10277 3.58708C7.66222 3.90723 6.41348 4.46534 5.43938 5.43944C4.46528 6.41353 3.90717 7.66228 3.58702 9.10283C3.56074 9.22112 3.53601 9.33979 3.51278 9.45881C3.17335 11.1984 4.65326 12.6667 6.42564 12.6667H31.6287C33.3776 12.6667 34.831 11.2358 34.4992 9.51866C34.4723 9.37943 34.4435 9.24078 34.413 9.10283C34.0926 7.66228 33.5347 6.41353 32.5605 5.43944C31.5864 4.46534 30.3376 3.90723 28.8971 3.58708C27.4745 3.27092 25.7721 3.16667 23.788 3.16667H14.212Z" fill="#FF0000"/>
</g>
<defs>
<clipPath id="clip0_2028_20">
<rect width="38" height="38" fill="white"/>
</clipPath>
</defs>
</svg>
