<svg width="38" height="38" viewBox="0 0 38 38" fill="none" xmlns="http://www.w3.org/2000/svg">
<g clip-path="url(#clip0_2030_435)">
<path d="M23.788 34.8333C25.7721 34.8333 27.4747 34.7291 28.8971 34.413C30.3378 34.0928 31.5866 33.5347 32.5607 32.5606C33.5347 31.5865 34.0929 30.3378 34.413 28.8971C34.7292 27.4746 34.8334 25.7721 34.8334 23.788V19C34.8334 17.251 33.4157 15.8333 31.6667 15.8333H19C17.2511 15.8333 15.8334 17.251 15.8334 19V31.6667C15.8334 33.4156 17.2511 34.8333 19 34.8333H23.788Z" fill="#FF9A9A"/>
<path d="M3.16663 23.788C3.16663 25.7721 3.27087 27.4746 3.58703 28.8971C3.90718 30.3378 4.46529 31.5865 5.43939 32.5606C6.41349 33.5347 7.66223 34.0928 9.10278 34.413C9.24074 34.4435 9.37939 34.4723 9.51861 34.4992C11.2358 34.831 12.6666 33.3776 12.6666 31.6287V19C12.6666 17.251 11.2489 15.8333 9.49996 15.8333H6.33329C4.58439 15.8333 3.16663 17.251 3.16663 19V23.788Z" fill="#FF9A9A"/>
<path d="M14.212 3.16667C12.2279 3.16667 10.5254 3.27092 9.10279 3.58708C7.66225 3.90723 6.4135 4.46534 5.4394 5.43944C4.46531 6.41353 3.9072 7.66228 3.58705 9.10283C3.56076 9.22112 3.53603 9.33979 3.5128 9.45881C3.17337 11.1984 4.65328 12.6667 6.42566 12.6667H31.6287C33.3776 12.6667 34.831 11.2358 34.4993 9.51866C34.4724 9.37943 34.4435 9.24078 34.413 9.10283C34.0927 7.66228 33.5347 6.41353 32.5605 5.43944C31.5864 4.46534 30.3376 3.90723 28.8971 3.58708C27.4745 3.27092 25.7721 3.16667 23.788 3.16667H14.212Z" fill="#FF9A9A"/>
</g>
<defs>
<clipPath id="clip0_2030_435">
<rect width="38" height="38" fill="white"/>
</clipPath>
</defs>
</svg>
