<svg width="36" height="36" viewBox="0 0 36 36" fill="none" xmlns="http://www.w3.org/2000/svg">
<path d="M18 0.00100708C8.05991 0.00100708 0 8.0597 0 18.001C0 27.9423 8.05912 36.001 18 36.001C27.9417 36.001 36 27.9423 36 18.001C36 8.0597 27.9417 0.00100708 18 0.00100708ZM18 5.38322C21.2891 5.38322 23.9544 8.04941 23.9544 11.3371C23.9544 14.6256 21.2891 17.291 18 17.291C14.7125 17.291 12.0472 14.6256 12.0472 11.3371C12.0472 8.04941 14.7125 5.38322 18 5.38322ZM17.996 31.2948C14.7156 31.2948 11.7111 30.1001 9.39374 28.1226C8.82922 27.6411 8.50347 26.935 8.50347 26.1941C8.50347 22.8598 11.202 20.1912 14.5369 20.1912H21.4646C24.8004 20.1912 27.4886 22.8598 27.4886 26.1941C27.4886 26.9358 27.1645 27.6403 26.5991 28.1218C24.2825 30.1001 21.2773 31.2948 17.996 31.2948Z" fill="#FF9A9A"/>
</svg>
