<svg width="30" height="34" viewBox="0 0 32 36" fill="none" xmlns="http://www.w3.org/2000/svg">
<path fill-rule="evenodd" clip-rule="evenodd" d="M23.875 9H8.125C7.50287 9 7 8.49712 7 7.875C7 7.254 7.50287 6.75 8.125 6.75H23.875C24.4971 6.75 25 7.254 25 7.875C25 8.49712 24.4971 9 23.875 9ZM23.875 15.7253H8.125C7.50287 15.7253 7 15.2202 7 14.6003C7 13.9782 7.50287 13.4753 8.125 13.4753H23.875C24.4971 13.4753 25 13.9782 25 14.6003C25 15.2202 24.4971 15.7253 23.875 15.7253ZM23.875 22.5H8.125C7.50287 22.5 7 21.9971 7 21.375C7 20.7529 7.50287 20.25 8.125 20.25H23.875C24.4971 20.25 25 20.7529 25 21.375C25 21.9971 24.4971 22.5 23.875 22.5ZM27.25 0H4.75C2.26487 0 0.25 2.01487 0.25 4.5V36H2.35038L7 32.625L11.5 36L16 32.625L20.5 36L25 32.625L29.6508 36H31.75V4.5C31.75 2.01487 29.7351 0 27.25 0Z" fill="#FF9A9A"/>
</svg>
