<svg width="50" height="49" viewBox="0 0 50 49" fill="none" xmlns="http://www.w3.org/2000/svg">
<path d="M18.144 0C16.2148 0 14.437 1.04599 13.5 2.73252L11.8931 5.625H7.1875C3.21795 5.625 0 8.843 0 12.8125V34.0625C0 38.032 3.21795 41.25 7.1875 41.25H21.2454C20.8302 40.2546 20.5114 39.209 20.3003 38.125H7.1875C4.94384 38.125 3.125 36.3061 3.125 34.0625V12.8125C3.125 10.5689 4.94384 8.75 7.1875 8.75H13.7319L16.2317 4.25012C16.6176 3.5557 17.3496 3.125 18.144 3.125H26.856C27.6504 3.125 28.3824 3.5557 28.7683 4.25012L31.2681 8.75H37.8125C40.0561 8.75 41.875 10.5689 41.875 12.8125V19.7499C42.9779 20.1569 44.0245 20.68 45 21.3045V12.8125C45 8.843 41.782 5.625 37.8125 5.625H33.1069L31.5 2.73252C30.563 1.04599 28.7852 0 26.856 0H18.144Z" fill="#5C5C5C"/>
<path d="M22.5 12.5C26.9097 12.5 30.6528 15.3542 31.9825 19.3161C30.9639 19.5926 29.985 19.9657 29.0564 20.425C28.1764 17.6422 25.5738 15.625 22.5 15.625C18.703 15.625 15.625 18.703 15.625 22.5C15.625 25.8019 17.9527 28.5601 21.0567 29.2232C20.6895 30.1887 20.4115 31.1984 20.2331 32.242C15.8023 31.215 12.5 27.2431 12.5 22.5C12.5 16.9771 16.9771 12.5 22.5 12.5Z" fill="#5C5C5C"/>
<path d="M50 35C50 42.5939 43.8439 48.75 36.25 48.75C28.6561 48.75 22.5 42.5939 22.5 35C22.5 27.4061 28.6561 21.25 36.25 21.25C43.8439 21.25 50 27.4061 50 35ZM37.5 27.5C37.5 26.8096 36.9404 26.25 36.25 26.25C35.5596 26.25 35 26.8096 35 27.5V33.75H28.75C28.0596 33.75 27.5 34.3096 27.5 35C27.5 35.6904 28.0596 36.25 28.75 36.25H35V42.5C35 43.1904 35.5596 43.75 36.25 43.75C36.9404 43.75 37.5 43.1904 37.5 42.5V36.25H43.75C44.4404 36.25 45 35.6904 45 35C45 34.3096 44.4404 33.75 43.75 33.75H37.5V27.5Z" fill="#5C5C5C"/>
</svg>
