<svg width="25" height="23" viewBox="0 0 25 23" fill="none" xmlns="http://www.w3.org/2000/svg">
<path d="M18.75 10.5C15.3125 10.5 12.5 13.3125 12.5 16.75C12.5 20.1875 15.3125 23 18.75 23C22.1875 23 25 20.1875 25 16.75C25 13.3125 22.1875 10.5 18.75 10.5ZM21.0938 17.5312H19.5312V19.0938C19.5312 19.5625 19.2188 19.875 18.75 19.875C18.2812 19.875 17.9688 19.5625 17.9688 19.0938V17.5312H16.4062C15.9375 17.5312 15.625 17.2188 15.625 16.75C15.625 16.2812 15.9375 15.9688 16.4062 15.9688H17.9688V14.4062C17.9688 13.9375 18.2812 13.625 18.75 13.625C19.2188 13.625 19.5312 13.9375 19.5312 14.4062V15.9688H21.0938C21.5625 15.9688 21.875 16.2812 21.875 16.75C21.875 17.2188 21.5625 17.5312 21.0938 17.5312Z" fill="white"/>
<path d="M11.0938 18.3125C11.0156 17.8438 10.9375 17.2969 10.9375 16.75H5.9375C5.70312 16.75 5.46875 16.5156 5.46875 16.2812C5.46875 16.0469 5.625 15.8125 5.85938 15.8125L11.1719 14.9531C11.9531 11.5156 15.0781 8.9375 18.75 8.9375C19.5312 8.9375 20.2344 9.01562 20.9375 9.25L21.875 4.40625C21.9531 4.01562 21.6406 3.54688 21.25 3.46875C20.8594 3.39062 20.3906 3.70313 20.3125 4.09375L20.1562 5.03125H5.15625V4.95312C5.625 3.9375 5.625 2.76562 5 1.82813C4.45312 0.890625 3.4375 0.34375 2.34375 0.34375H0.78125C0.3125 0.34375 0 0.65625 0 1.125C0 1.59375 0.3125 1.90625 0.78125 1.90625H2.34375C2.89062 1.90625 3.4375 2.21875 3.75 2.6875C4.0625 3.15625 4.0625 3.78125 3.82812 4.25L3.20312 5.5C3.20312 5.57813 3.20312 5.57812 3.125 5.65625C3.125 5.65625 3.125 5.73438 3.125 5.8125C3.125 5.89062 3.125 5.89062 3.125 5.96875C3.125 6.04688 3.125 6.04687 3.125 6.125L6.09375 14.1719L5.625 14.25C4.60938 14.4062 3.90625 15.2656 3.90625 16.2812C3.90625 17.0625 4.29688 17.6875 4.92188 18.0781C4.76562 18.3906 4.6875 18.7031 4.6875 19.0938C4.6875 20.4219 5.70312 21.4375 7.03125 21.4375C8.35938 21.4375 9.375 20.4219 9.375 19.0938C9.375 18.7812 9.29688 18.5469 9.21875 18.3125H11.0938ZM7.03125 19.875C6.5625 19.875 6.25 19.5625 6.25 19.0938C6.25 18.625 6.5625 18.3125 7.03125 18.3125C7.5 18.3125 7.8125 18.625 7.8125 19.0938C7.8125 19.5625 7.5 19.875 7.03125 19.875Z" fill="white"/>
</svg>
