<svg width="28" height="28" viewBox="0 0 28 28" fill="none" xmlns="http://www.w3.org/2000/svg">
<path d="M10.8689 24.0564C10.5573 23.8457 10.1779 23.7213 9.77446 23.7218C9.50583 23.7218 9.24667 23.7765 9.01195 23.876C8.66009 24.0248 8.36248 24.2722 8.15133 24.5847C7.94013 24.8963 7.81664 25.2757 7.81708 25.6791C7.81664 25.9477 7.87139 26.2069 7.97086 26.4411C8.1201 26.7935 8.36702 27.091 8.67907 27.3018C8.99111 27.5135 9.37103 27.6369 9.77446 27.6369C10.0431 27.6369 10.3018 27.5821 10.536 27.4827C10.8883 27.3339 11.1864 27.086 11.3971 26.774C11.6079 26.4624 11.7318 26.0825 11.7318 25.6791C11.7318 25.4105 11.6766 25.1518 11.5776 24.9171C11.4288 24.5648 11.181 24.2671 10.8689 24.0564ZM10.5016 25.9861C10.4419 26.1272 10.3411 26.2489 10.2149 26.334C10.0883 26.419 9.93988 26.4683 9.7744 26.4687C9.6636 26.4683 9.5609 26.4466 9.46733 26.4062C9.32667 26.3475 9.20456 26.2462 9.11952 26.1205C9.03448 25.9934 8.98564 25.8446 8.98477 25.679C8.98526 25.5687 9.00741 25.4664 9.04722 25.3719C9.10601 25.2313 9.20735 25.1097 9.33346 25.0242C9.46011 24.9392 9.60892 24.8903 9.7744 24.8899C9.88476 24.8899 9.98697 24.9121 10.081 24.9518C10.2221 25.0111 10.3433 25.1119 10.4288 25.2386C10.5139 25.3652 10.5632 25.5135 10.5632 25.679C10.5632 25.7899 10.5414 25.8921 10.5016 25.9861Z" fill="white"/>
<path d="M9.22739 21.4836C9.01575 21.4836 8.81767 21.4411 8.63589 21.3647C8.36453 21.2498 8.13025 21.0562 7.96657 20.8129C7.80918 20.5791 7.71599 20.3037 7.70877 20.0016C7.71692 19.6411 7.83182 19.3282 8.0335 19.0781C8.13796 18.9492 8.26685 18.8362 8.42332 18.7426C8.57797 18.6503 8.76019 18.5771 8.97418 18.5309L22.3363 16.3561C23.2096 16.2136 23.9038 15.5461 24.0802 14.6791L25.7146 6.644V6.64312C25.7336 6.54993 25.7426 6.455 25.7426 6.36093C25.7426 6.0362 25.6314 5.71874 25.4224 5.46275C25.1534 5.13353 24.75 4.94223 24.324 4.94223H5.822L5.19156 2.77639V2.77682C4.9021 1.80858 4.10792 1.075 3.12021 0.863363L0.85812 0.378996C0.475526 0.296691 0.098292 0.540871 0.016042 0.923957C-0.0658252 1.30699 0.177917 1.68417 0.56144 1.76604L2.82271 2.25084C3.30435 2.35393 3.69142 2.7112 3.83208 3.18337L7.96564 17.3821C7.8725 17.4255 7.78249 17.4726 7.69614 17.5246C7.25021 17.7901 6.89294 18.1627 6.65324 18.5978C6.424 19.0111 6.30232 19.4796 6.291 19.9631H6.2887V20.0368H6.2905C6.29958 20.4145 6.38008 20.7767 6.51981 21.1073C6.7437 21.636 7.11541 22.0833 7.58392 22.3998C8.05242 22.7168 8.62134 22.9027 9.22739 22.9022H16.7343C16.732 22.8322 16.7239 22.7638 16.7239 22.6933C16.7239 22.2795 16.7664 21.8756 16.8428 21.4835H9.22739V21.4836ZM19.3302 7.37932C19.7286 7.26355 20.1456 7.49149 20.2614 7.88989L21.7836 13.1002C21.8994 13.4987 21.671 13.9152 21.2726 14.0318C20.8746 14.1481 20.4577 13.9197 20.3415 13.5213L18.8196 8.31093C18.7033 7.91296 18.9317 7.49603 19.3302 7.37932ZM16.0455 7.39289C16.4435 7.27618 16.8604 7.50456 16.9767 7.90301L18.6441 13.613C18.7608 14.0111 18.5319 14.4285 18.134 14.5447C17.7359 14.6609 17.319 14.4325 17.2023 14.0341L15.5349 8.324C15.4187 7.92614 15.647 7.50866 16.0455 7.39289ZM12.7599 7.40464C13.1583 7.28887 13.5753 7.51725 13.6911 7.91564L15.4956 14.0938C15.6122 14.4923 15.3834 14.9092 14.9854 15.0254C14.5875 15.1417 14.1705 14.9133 14.0538 14.5148L12.2493 8.33625C12.133 7.93829 12.3615 7.52135 12.7599 7.40464ZM9.47479 7.41777C9.87325 7.3015 10.2902 7.52993 10.4064 7.92839L12.3516 14.5891C12.4683 14.9875 12.2394 15.4049 11.8414 15.5208C11.4434 15.6374 11.0265 15.4086 10.9098 15.0106L8.96423 8.34904C8.8484 7.95097 9.07634 7.53404 9.47479 7.41777Z" fill="white"/>
<path d="M23.0564 17.7494C20.3258 17.7494 18.1129 19.9627 18.1129 22.6934C18.1129 25.4236 20.3258 27.6369 23.0564 27.6369C25.7867 27.6369 28 25.4236 28 22.6934C28 19.9627 25.7867 17.7494 23.0564 17.7494ZM22.7761 25.0025L20.4127 23.1117L21.3095 21.9906L22.536 22.9719L24.6023 20.3154L25.7361 21.1969L22.7761 25.0025Z" fill="white"/>
</svg>
