<svg width="16" height="16" viewBox="0 0 16 16" fill="none">
<path d="M10.45 8L15.2625 3.1875C15.9625 2.4875 15.9625 1.4375 15.2625 0.7375C15 0.3875 14.5625 0.125 14.125 0.125C13.6875 0.125 13.25 0.3 12.9 0.65L8 5.55L3.1875 0.7375C2.4875 0.0374998 1.35 0.0374998 0.7375 0.7375C0.3875 1 0.125 1.4375 0.125 1.9625C0.125 2.4875 0.3 2.8375 0.65 3.1875L5.4625 8L0.65 12.8125C0.3875 13.1625 0.125 13.6 0.125 14.125C0.125 14.5625 0.3 15 0.65 15.35C1 15.7 1.4375 15.875 1.875 15.875C2.3125 15.875 2.75 15.7 3.1 15.35L7.9125 10.5375L12.725 15.35C13.425 16.05 14.5625 16.05 15.175 15.35C15.875 14.65 15.875 13.5125 15.175 12.9L10.45 8Z" fill="#5C5C5C"/>
</svg>