<svg width="47" height="47" viewBox="0 0 47 47" fill="none" xmlns="http://www.w3.org/2000/svg">
<path d="M46.4161 25.0992C46.4127 28.467 46.387 31.3295 46.1957 33.6782C45.9736 36.404 45.5185 38.6814 44.4998 40.573C44.0507 41.4071 43.4986 42.1544 42.8265 42.8266C40.9189 44.7339 38.4886 45.5981 35.4088 46.0122C32.3996 46.4167 28.5432 46.4167 23.6223 46.4167H23.3775C18.4566 46.4167 14.6001 46.4167 11.5912 46.0122C8.5113 45.5981 6.08101 44.7339 4.17347 42.8266C2.48238 41.1353 1.60907 39.0307 1.14467 36.4195C0.688463 33.8547 0.605 30.6636 0.587652 26.7008C0.583252 25.6929 0.583252 24.6269 0.583252 23.5021V23.3777C0.583229 18.4567 0.583207 14.6003 0.987755 11.5913C1.40184 8.51142 2.26593 6.08113 4.17347 4.17359C6.08101 2.26605 8.5113 1.40196 11.5912 0.987876C14.267 0.628108 17.7099 0.588301 21.9003 0.583924C22.7833 0.582985 23.4999 1.2992 23.4999 2.1822C23.4999 3.06523 22.7831 3.78071 21.9001 3.78165C17.6504 3.78614 14.488 3.82484 12.0172 4.15702C9.29195 4.52344 7.64894 5.22031 6.43457 6.43469C5.22019 7.64906 4.52332 9.29207 4.1569 12.0173C3.78432 14.7886 3.78093 18.4302 3.78093 23.5C3.78093 24.1192 3.78093 24.7178 3.78166 25.2976L5.91587 23.4304C7.85849 21.7304 10.7863 21.828 12.6116 23.6531L21.7564 32.798C23.2215 34.2631 25.5276 34.4627 27.2227 33.2715L27.8584 32.8246C30.2977 31.1104 33.5979 31.3091 35.814 33.3036L41.8479 38.7341C42.4552 37.4586 42.8159 35.7827 43.0084 33.4186C43.1899 31.1911 43.2149 28.4856 43.2183 25.0994C43.2193 24.2164 43.9347 23.5 44.8177 23.5C45.7007 23.5 46.417 24.2162 46.4161 25.0992Z" fill="#5C5C5C"/>
<path fill-rule="evenodd" clip-rule="evenodd" d="M36.104 21.2083C31.2427 21.2083 28.8119 21.2083 27.3017 19.6981C25.7915 18.1879 25.7915 15.7572 25.7915 10.8958C25.7915 6.03447 25.7915 3.60379 27.3017 2.09356C28.8119 0.583328 31.2427 0.583328 36.104 0.583328C40.9653 0.583328 43.3961 0.583328 44.9063 2.09356C46.4165 3.60379 46.4165 6.03447 46.4165 10.8958C46.4165 15.7572 46.4165 18.1879 44.9063 19.6981C43.3961 21.2083 40.9653 21.2083 36.104 21.2083ZM37.8228 6.3125C37.8228 5.36326 37.0532 4.59375 36.104 4.59375C35.1548 4.59375 34.3853 5.36326 34.3853 6.3125V9.17708H31.5207C30.5715 9.17708 29.8019 9.9466 29.8019 10.8958C29.8019 11.8451 30.5715 12.6146 31.5207 12.6146H34.3853V15.4792C34.3853 16.4284 35.1548 17.1979 36.104 17.1979C37.0532 17.1979 37.8228 16.4284 37.8228 15.4792V12.6146H40.6873C41.6365 12.6146 42.4061 11.8451 42.4061 10.8958C42.4061 9.9466 41.6365 9.17708 40.6873 9.17708H37.8228V6.3125Z" fill="#5C5C5C"/>
</svg>
