<svg width="18" height="18" viewBox="0 0 18 18" fill="none" xmlns="http://www.w3.org/2000/svg">
<path d="M6.75 0H1.125C0.50368 0 0 0.50368 0 1.125V6.75C0 7.37132 0.50368 7.875 1.125 7.875H6.75C7.37132 7.875 7.875 7.37132 7.875 6.75V1.125C7.875 0.50368 7.37132 0 6.75 0Z" fill="white"/>
<path d="M6.75 10.125H1.125C0.50368 10.125 0 10.6287 0 11.25V16.875C0 17.4963 0.50368 18 1.125 18H6.75C7.37132 18 7.875 17.4963 7.875 16.875V11.25C7.875 10.6287 7.37132 10.125 6.75 10.125Z" fill="white"/>
<path d="M16.875 0H11.25C10.6287 0 10.125 0.50368 10.125 1.125V6.75C10.125 7.37132 10.6287 7.875 11.25 7.875H16.875C17.4963 7.875 18 7.37132 18 6.75V1.125C18 0.50368 17.4963 0 16.875 0Z" fill="white"/>
<path d="M16.875 10.125H11.25C10.6287 10.125 10.125 10.6287 10.125 11.25V16.875C10.125 17.4963 10.6287 18 11.25 18H16.875C17.4963 18 18 17.4963 18 16.875V11.25C18 10.6287 17.4963 10.125 16.875 10.125Z" fill="white"/>
</svg>
