<svg width="24" height="22" viewBox="0 0 24 22" fill="none" xmlns="http://www.w3.org/2000/svg">
<path d="M7.55556 2.69231L22 2.69339L7.55556 2.69231ZM7.55556 11L22 11.0011L7.55556 11ZM7.55556 19.3077L22 19.3087L7.55556 19.3077ZM2 3.38462H3.11111V2H2V3.38462ZM2 11.6923H3.11111V10.3077H2V11.6923ZM2 20H3.11111V18.6154H2V20Z" fill="#D4BBFF"/>
<path d="M7.55556 2.69231L22 2.69339M7.55556 11L22 11.0011M7.55556 19.3077L22 19.3087M2 3.38462H3.11111V2H2V3.38462ZM2 11.6923H3.11111V10.3077H2V11.6923ZM2 20H3.11111V18.6154H2V20Z" stroke="white" stroke-width="3.16667" stroke-linecap="round" stroke-linejoin="round"/>
</svg>
