<svg width="24" height="24" viewBox="0 0 24 24" fill="none" xmlns="http://www.w3.org/2000/svg">
<path d="M17.8333 22.5002L6.16667 22.5M17.8333 22.5002L18.7703 22.5C20.0745 22.5 20.7267 22.5 21.2253 22.2459C21.6643 22.0222 22.0222 21.665 22.2459 21.226C22.5 20.7274 22.5 20.0745 22.5 18.7703V8.75614C22.5 8.23251 22.5 7.96941 22.4441 7.71956C22.3944 7.49667 22.3125 7.28261 22.2004 7.08361C22.076 6.86286 21.9015 6.66897 21.5584 6.28774L18.344 2.71614C17.9464 2.27436 17.7449 2.05045 17.5029 1.88964C17.2854 1.745 17.0449 1.63834 16.7918 1.57335C16.5062 1.5 16.1998 1.5 15.5875 1.5H5.23357C3.92677 1.5 3.27289 1.5 2.77377 1.75432C2.33472 1.97802 1.97802 2.33472 1.75432 2.77377C1.5 3.27289 1.5 3.92677 1.5 5.23357V18.7669C1.5 20.0737 1.5 20.7262 1.75432 21.2253C1.97802 21.6643 2.33472 22.0222 2.77377 22.2459C3.2724 22.5 3.92549 22.5 5.22973 22.5H6.16667M17.8333 22.5002V18.063C17.8333 16.7588 17.8333 16.1057 17.5792 15.6071C17.3556 15.1681 16.9976 14.8113 16.5586 14.5877C16.0595 14.3333 15.407 14.3333 14.1002 14.3333H9.90023C8.59344 14.3333 7.93956 14.3333 7.44043 14.5877C7.00138 14.8113 6.64468 15.1681 6.42099 15.6071C6.16667 16.1062 6.16667 16.7601 6.16667 18.0669V22.5M15.5 6.16667H8.5" stroke="white" stroke-width="2" stroke-linecap="round" stroke-linejoin="round"/>
</svg>
