<svg width="24" height="24" viewBox="0 0 24 24" fill="none" xmlns="http://www.w3.org/2000/svg">
<path d="M23.0001 12C22.9896 14.4761 22.144 16.8763 20.6 18.8122C19.0561 20.7481 16.9041 22.1064 14.4924 22.6674C12.0806 23.2285 9.55006 22.9593 7.31023 21.9036C5.0704 20.8479 3.25228 19.0673 2.15005 16.85C2.0261 16.64 1.9831 16.3921 2.02914 16.1527C2.07518 15.9133 2.20708 15.6989 2.40005 15.55C2.51718 15.461 2.65249 15.3989 2.79635 15.3682C2.94022 15.3375 3.08908 15.3389 3.23234 15.3723C3.3756 15.4057 3.50971 15.4704 3.62513 15.5616C3.74055 15.6528 3.83442 15.7683 3.90005 15.9C4.73723 17.64 6.11182 19.0646 7.82078 19.9634C9.52974 20.8622 11.4825 21.1875 13.3905 20.8914C15.2986 20.5952 17.0608 19.6933 18.4169 18.3187C19.773 16.9442 20.6511 15.1699 20.9215 13.2581C21.1918 11.3462 20.8402 9.39802 19.9184 7.70135C18.9966 6.00467 17.5535 4.64945 15.8024 3.83583C14.0513 3.02222 12.0849 2.79336 10.1937 3.18306C8.30257 3.57276 6.58687 4.56035 5.30005 5.99997H7.95005C8.19711 5.99546 8.43785 6.07822 8.6299 6.23369C8.82196 6.38916 8.95303 6.60739 9.00005 6.84997C9.02181 6.99329 9.01214 7.13963 8.97172 7.27885C8.93131 7.41806 8.8611 7.54682 8.76598 7.65621C8.67086 7.7656 8.55309 7.85301 8.42084 7.91236C8.28859 7.97172 8.14501 8.00161 8.00005 7.99997H3.00005C2.73484 7.99997 2.48048 7.89461 2.29295 7.70708C2.10541 7.51954 2.00005 7.26519 2.00005 6.99997V2.04997C1.99554 1.80291 2.0783 1.56218 2.23377 1.37012C2.38924 1.17807 2.60747 1.047 2.85005 0.999971C2.99338 0.978217 3.13971 0.987884 3.27893 1.0283C3.41814 1.06872 3.54691 1.13892 3.6563 1.23404C3.76569 1.32916 3.85309 1.44693 3.91244 1.57919C3.9718 1.71144 4.00169 1.85502 4.00005 1.99997V4.44997C5.51189 2.84799 7.46987 1.73679 9.62044 1.26028C11.771 0.783766 14.0151 0.963885 16.0621 1.77731C18.1092 2.59074 19.8649 4.00001 21.1018 5.82262C22.3388 7.64523 23.0001 9.79724 23.0001 12Z" fill="#5C5C5C"/>
<path d="M17 16C16.8217 16.0037 16.6468 15.9512 16.5 15.85L11 12.55V7C11 6.73478 11.1054 6.48043 11.2929 6.29289C11.4804 6.10536 11.7348 6 12 6C12.2652 6 12.5196 6.10536 12.7071 6.29289C12.8946 6.48043 13 6.73478 13 7V11.45L17.5 14.15C17.6154 14.212 17.7167 14.2971 17.7976 14.4001C17.8785 14.5031 17.9372 14.6217 17.9701 14.7485C18.0029 14.8753 18.0092 15.0075 17.9886 15.1368C17.9679 15.2661 17.9207 15.3898 17.85 15.5C17.7676 15.6532 17.6448 15.7808 17.495 15.8689C17.3451 15.9571 17.1739 16.0024 17 16Z" fill="#5C5C5C"/>
</svg>
