<svg width="25" height="18" viewBox="0 0 25 18" fill="none" xmlns="http://www.w3.org/2000/svg">
<path d="M23.9549 9H10.5695M1.75 4.00004H4.875M3 9H4.875M3.625 14H4.875M10.4519 9.612L9.33752 13.3108C8.91565 14.711 8.7047 15.4111 8.88418 15.8291C9.03999 16.1921 9.3582 16.4601 9.74239 16.5519C10.1849 16.6576 10.8389 16.3306 12.1469 15.6766L21.9223 10.7889C23.0738 10.2131 23.6496 9.92525 23.8344 9.53563C23.9951 9.19663 23.9951 8.80338 23.8344 8.46438C23.6496 8.07475 23.0738 7.78688 21.9223 7.21113L12.1335 2.31678C10.8291 1.6646 10.1769 1.33851 9.73486 1.44378C9.351 1.53519 9.03284 1.80248 8.8766 2.1648C8.69664 2.58211 8.90534 3.28077 9.32274 4.67808L10.4533 8.46263C10.5171 8.67638 10.549 8.78325 10.5616 8.89213C10.5729 8.98875 10.5727 9.08625 10.5612 9.18288C10.5484 9.29175 10.5162 9.3985 10.4519 9.612Z" stroke="white" stroke-width="2" stroke-linecap="round" stroke-linejoin="round"/>
</svg>
