<svg width="216" height="216" viewBox="0 0 216 216" fill="none" xmlns="http://www.w3.org/2000/svg">
<rect width="216" height="216" fill="white"/>
<path d="M162.056 24.5934H69.0359C63.5439 24.5934 59.0917 29.0276 59.0917 34.4975V164.111C59.0917 169.581 63.5439 174.015 69.0359 174.015H162.056C167.548 174.015 172 169.581 172 164.111V34.4975C172 29.0276 167.548 24.5934 162.056 24.5934Z" fill="#CBEDE1"/>
<path d="M152.341 18H53.9254C48.4437 18 44 22.4258 44 27.8854V154.36C44 159.82 48.4437 164.246 53.9254 164.246H152.341C157.823 164.246 162.267 159.82 162.267 154.36V27.8854C162.267 22.4258 157.823 18 152.341 18Z" fill="white" stroke="#0B5243" stroke-width="0.75" stroke-miterlimit="10"/>
<path d="M91.2348 28.2324H55.7991C53.672 28.2324 51.9476 29.9498 51.9476 32.0684C51.9476 34.1869 53.672 35.9044 55.7991 35.9044H91.2348C93.362 35.9044 95.0863 34.1869 95.0863 32.0684C95.0863 29.9498 93.362 28.2324 91.2348 28.2324Z" fill="#0B5243"/>
<path d="M148.546 44.6925H57.7201C54.6932 44.6925 52.2395 47.1363 52.2395 50.151V146.773C52.2395 149.788 54.6932 152.231 57.7201 152.231H148.546C151.573 152.231 154.026 149.788 154.026 146.773V50.151C154.026 47.1363 151.573 44.6925 148.546 44.6925Z" fill="#CBEDE1"/>
<path d="M80.4244 114.125H64.7265C62.5994 114.125 60.875 115.842 60.875 117.961C60.875 120.079 62.5994 121.797 64.7265 121.797H80.4244C82.5516 121.797 84.2759 120.079 84.2759 117.961C84.2759 115.842 82.5516 114.125 80.4244 114.125Z" fill="#0B5243"/>
<path d="M130.39 128.146H62.8714C61.7688 128.146 60.875 129.034 60.875 130.13C60.875 131.225 61.7688 132.114 62.8714 132.114H130.39C131.493 132.114 132.387 131.225 132.387 130.13C132.387 129.034 131.493 128.146 130.39 128.146Z" fill="#83BAA0"/>
<path d="M130.39 138.013H62.8714C61.7688 138.013 60.875 138.901 60.875 139.997C60.875 141.092 61.7688 141.98 62.8714 141.98H130.39C131.493 141.98 132.387 141.092 132.387 139.997C132.387 138.901 131.493 138.013 130.39 138.013Z" fill="#83BAA0"/>
<path d="M135.701 95.0574C135.701 85.8285 127.546 64.0131 115.7 64.0131C104.814 64.0131 96.5931 83.2212 96.5931 83.2212C96.5931 83.2212 92.864 74.1236 85.9144 74.1236C76.7988 74.1236 71.6572 88.9705 71.6572 95.0668H135.701V95.0574Z" fill="#0CC79F"/>
<path d="M88.4662 67.1738C92.3512 67.1738 95.5006 64.037 95.5006 60.1677C95.5006 56.2983 92.3512 53.1616 88.4662 53.1616C84.5812 53.1616 81.4318 56.2983 81.4318 60.1677C81.4318 64.037 84.5812 67.1738 88.4662 67.1738Z" fill="#FBF9ED"/>
<path d="M24.66 176.96V191H21.24V176.96H24.66ZM41.3784 179.72C42.7651 179.72 43.8651 180.14 44.6784 180.98C45.5051 181.82 45.9184 182.987 45.9184 184.48V191H42.5184V184.94C42.5184 184.22 42.3251 183.667 41.9384 183.28C41.5651 182.88 41.0451 182.68 40.3784 182.68C39.7118 182.68 39.1851 182.88 38.7984 183.28C38.4251 183.667 38.2384 184.22 38.2384 184.94V191H34.8384V184.94C34.8384 184.22 34.6451 183.667 34.2584 183.28C33.8851 182.88 33.3651 182.68 32.6984 182.68C32.0318 182.68 31.5051 182.88 31.1184 183.28C30.7451 183.667 30.5584 184.22 30.5584 184.94V191H27.1384V179.84H30.5584V181.24C30.9051 180.773 31.3584 180.407 31.9184 180.14C32.4784 179.86 33.1118 179.72 33.8184 179.72C34.6584 179.72 35.4051 179.9 36.0584 180.26C36.7251 180.62 37.2451 181.133 37.6184 181.8C38.0051 181.187 38.5318 180.687 39.1984 180.3C39.8651 179.913 40.5918 179.72 41.3784 179.72ZM47.6303 185.4C47.6303 184.253 47.8436 183.247 48.2703 182.38C48.7103 181.513 49.3036 180.847 50.0503 180.38C50.797 179.913 51.6303 179.68 52.5503 179.68C53.337 179.68 54.0236 179.84 54.6103 180.16C55.2103 180.48 55.6703 180.9 55.9903 181.42V179.84H59.4103V191H55.9903V189.42C55.657 189.94 55.1903 190.36 54.5903 190.68C54.0036 191 53.317 191.16 52.5303 191.16C51.6236 191.16 50.797 190.927 50.0503 190.46C49.3036 189.98 48.7103 189.307 48.2703 188.44C47.8436 187.56 47.6303 186.547 47.6303 185.4ZM55.9903 185.42C55.9903 184.567 55.7503 183.893 55.2703 183.4C54.8036 182.907 54.2303 182.66 53.5503 182.66C52.8703 182.66 52.2903 182.907 51.8103 183.4C51.3436 183.88 51.1103 184.547 51.1103 185.4C51.1103 186.253 51.3436 186.933 51.8103 187.44C52.2903 187.933 52.8703 188.18 53.5503 188.18C54.2303 188.18 54.8036 187.933 55.2703 187.44C55.7503 186.947 55.9903 186.273 55.9903 185.42ZM66.1245 179.68C66.9112 179.68 67.5979 179.84 68.1845 180.16C68.7845 180.48 69.2445 180.9 69.5645 181.42V179.84H72.9845V190.98C72.9845 192.007 72.7779 192.933 72.3645 193.76C71.9645 194.6 71.3445 195.267 70.5045 195.76C69.6779 196.253 68.6445 196.5 67.4045 196.5C65.7512 196.5 64.4112 196.107 63.3845 195.32C62.3579 194.547 61.7712 193.493 61.6245 192.16H65.0045C65.1112 192.587 65.3645 192.92 65.7645 193.16C66.1645 193.413 66.6579 193.54 67.2445 193.54C67.9512 193.54 68.5112 193.333 68.9245 192.92C69.3512 192.52 69.5645 191.873 69.5645 190.98V189.4C69.2312 189.92 68.7712 190.347 68.1845 190.68C67.5979 191 66.9112 191.16 66.1245 191.16C65.2045 191.16 64.3712 190.927 63.6245 190.46C62.8779 189.98 62.2845 189.307 61.8445 188.44C61.4179 187.56 61.2045 186.547 61.2045 185.4C61.2045 184.253 61.4179 183.247 61.8445 182.38C62.2845 181.513 62.8779 180.847 63.6245 180.38C64.3712 179.913 65.2045 179.68 66.1245 179.68ZM69.5645 185.42C69.5645 184.567 69.3245 183.893 68.8445 183.4C68.3779 182.907 67.8045 182.66 67.1245 182.66C66.4445 182.66 65.8645 182.907 65.3845 183.4C64.9179 183.88 64.6845 184.547 64.6845 185.4C64.6845 186.253 64.9179 186.933 65.3845 187.44C65.8645 187.933 66.4445 188.18 67.1245 188.18C67.8045 188.18 68.3779 187.933 68.8445 187.44C69.3245 186.947 69.5645 186.273 69.5645 185.42ZM85.9787 185.24C85.9787 185.56 85.9588 185.893 85.9188 186.24H78.1788C78.2321 186.933 78.4521 187.467 78.8388 187.84C79.2388 188.2 79.7254 188.38 80.2988 188.38C81.1521 188.38 81.7454 188.02 82.0788 187.3H85.7188C85.5321 188.033 85.1921 188.693 84.6988 189.28C84.2188 189.867 83.6121 190.327 82.8788 190.66C82.1454 190.993 81.3254 191.16 80.4188 191.16C79.3254 191.16 78.3521 190.927 77.4988 190.46C76.6454 189.993 75.9788 189.327 75.4988 188.46C75.0188 187.593 74.7788 186.58 74.7788 185.42C74.7788 184.26 75.0121 183.247 75.4788 182.38C75.9588 181.513 76.6254 180.847 77.4788 180.38C78.3321 179.913 79.3121 179.68 80.4188 179.68C81.4988 179.68 82.4588 179.907 83.2988 180.36C84.1388 180.813 84.7921 181.46 85.2588 182.3C85.7388 183.14 85.9787 184.12 85.9787 185.24ZM82.4788 184.34C82.4788 183.753 82.2788 183.287 81.8788 182.94C81.4788 182.593 80.9788 182.42 80.3788 182.42C79.8054 182.42 79.3188 182.587 78.9188 182.92C78.5321 183.253 78.2921 183.727 78.1988 184.34H82.4788ZM104.581 191H101.161L95.4413 182.34V191H92.0213V176.96H95.4413L101.161 185.66V176.96H104.581V191ZM112.14 191.16C111.047 191.16 110.06 190.927 109.18 190.46C108.314 189.993 107.627 189.327 107.12 188.46C106.627 187.593 106.38 186.58 106.38 185.42C106.38 184.273 106.634 183.267 107.14 182.4C107.647 181.52 108.34 180.847 109.22 180.38C110.1 179.913 111.087 179.68 112.18 179.68C113.274 179.68 114.26 179.913 115.14 180.38C116.02 180.847 116.714 181.52 117.22 182.4C117.727 183.267 117.98 184.273 117.98 185.42C117.98 186.567 117.72 187.58 117.2 188.46C116.694 189.327 115.994 189.993 115.1 190.46C114.22 190.927 113.234 191.16 112.14 191.16ZM112.14 188.2C112.794 188.2 113.347 187.96 113.8 187.48C114.267 187 114.5 186.313 114.5 185.42C114.5 184.527 114.274 183.84 113.82 183.36C113.38 182.88 112.834 182.64 112.18 182.64C111.514 182.64 110.96 182.88 110.52 183.36C110.08 183.827 109.86 184.513 109.86 185.42C109.86 186.313 110.074 187 110.5 187.48C110.94 187.96 111.487 188.2 112.14 188.2ZM126.015 188.1V191H124.275C123.035 191 122.068 190.7 121.375 190.1C120.681 189.487 120.335 188.493 120.335 187.12V182.68H118.975V179.84H120.335V177.12H123.755V179.84H125.995V182.68H123.755V187.16C123.755 187.493 123.835 187.733 123.995 187.88C124.155 188.027 124.421 188.1 124.795 188.1H126.015ZM141.298 176.96V179.7H135.578V182.66H139.858V185.32H135.578V191H132.158V176.96H141.298ZM148.175 191.16C147.082 191.16 146.095 190.927 145.215 190.46C144.349 189.993 143.662 189.327 143.155 188.46C142.662 187.593 142.415 186.58 142.415 185.42C142.415 184.273 142.669 183.267 143.175 182.4C143.682 181.52 144.375 180.847 145.255 180.38C146.135 179.913 147.122 179.68 148.215 179.68C149.309 179.68 150.295 179.913 151.175 180.38C152.055 180.847 152.749 181.52 153.255 182.4C153.762 183.267 154.015 184.273 154.015 185.42C154.015 186.567 153.755 187.58 153.235 188.46C152.729 189.327 152.029 189.993 151.135 190.46C150.255 190.927 149.269 191.16 148.175 191.16ZM148.175 188.2C148.829 188.2 149.382 187.96 149.835 187.48C150.302 187 150.535 186.313 150.535 185.42C150.535 184.527 150.309 183.84 149.855 183.36C149.415 182.88 148.869 182.64 148.215 182.64C147.549 182.64 146.995 182.88 146.555 183.36C146.115 183.827 145.895 184.513 145.895 185.42C145.895 186.313 146.109 187 146.535 187.48C146.975 187.96 147.522 188.2 148.175 188.2ZM166.85 179.84V191H163.43V189.48C163.083 189.973 162.61 190.373 162.01 190.68C161.423 190.973 160.77 191.12 160.05 191.12C159.197 191.12 158.443 190.933 157.79 190.56C157.137 190.173 156.63 189.62 156.27 188.9C155.91 188.18 155.73 187.333 155.73 186.36V179.84H159.13V185.9C159.13 186.647 159.323 187.227 159.71 187.64C160.097 188.053 160.617 188.26 161.27 188.26C161.937 188.26 162.463 188.053 162.85 187.64C163.237 187.227 163.43 186.647 163.43 185.9V179.84H166.85ZM176.106 179.72C177.413 179.72 178.453 180.147 179.226 181C180.013 181.84 180.406 183 180.406 184.48V191H177.006V184.94C177.006 184.193 176.813 183.613 176.426 183.2C176.04 182.787 175.52 182.58 174.866 182.58C174.213 182.58 173.693 182.787 173.306 183.2C172.92 183.613 172.726 184.193 172.726 184.94V191H169.306V179.84H172.726V181.32C173.073 180.827 173.54 180.44 174.126 180.16C174.713 179.867 175.373 179.72 176.106 179.72ZM182.103 185.4C182.103 184.253 182.316 183.247 182.743 182.38C183.183 181.513 183.776 180.847 184.523 180.38C185.27 179.913 186.103 179.68 187.023 179.68C187.756 179.68 188.423 179.833 189.023 180.14C189.636 180.447 190.116 180.86 190.463 181.38V176.2H193.883V191H190.463V189.4C190.143 189.933 189.683 190.36 189.083 190.68C188.496 191 187.81 191.16 187.023 191.16C186.103 191.16 185.27 190.927 184.523 190.46C183.776 189.98 183.183 189.307 182.743 188.44C182.316 187.56 182.103 186.547 182.103 185.4ZM190.463 185.42C190.463 184.567 190.223 183.893 189.743 183.4C189.276 182.907 188.703 182.66 188.023 182.66C187.343 182.66 186.763 182.907 186.283 183.4C185.816 183.88 185.583 184.547 185.583 185.4C185.583 186.253 185.816 186.933 186.283 187.44C186.763 187.933 187.343 188.18 188.023 188.18C188.703 188.18 189.276 187.933 189.743 187.44C190.223 186.947 190.463 186.273 190.463 185.42Z" fill="#0B5243"/>
</svg>