<svg width="216" height="133" viewBox="0 0 216 133" fill="none" xmlns="http://www.w3.org/2000/svg">
    <rect width="216" height="133" fill="white"/>
    <path d="M173.846 10H60.1541C53.4416 10 48 13.3534 48 17.49V115.51C48 119.647 53.4416 123 60.1541 123H173.846C180.558 123 186 119.647 186 115.51V17.49C186 13.3534 180.558 10 173.846 10Z" fill="#CBEDE1"/>
    <path d="M167.999 8H49.0011C42.3731 8 37 11.2987 37 15.3678V109.632C37 113.701 42.3731 117 49.0011 117H167.999C174.627 117 180 113.701 180 109.632V15.3678C180 11.2987 174.627 8 167.999 8Z" fill="white" stroke="#0B5243" stroke-width="0.75" stroke-miterlimit="10"/>
    <path d="M92.6252 21H52.3748C49.9587 21 48 23.0147 48 25.5C48 27.9853 49.9587 30 52.3748 30H92.6252C95.0413 30 97 27.9853 97 25.5C97 23.0147 95.0413 21 92.6252 21Z" fill="#0B5243"/>
    <path d="M166.269 36H54.7305C51.0133 36 48 37.2272 48 38.741V87.259C48 88.7728 51.0133 90 54.7305 90H166.269C169.987 90 173 88.7728 173 87.259V38.741C173 37.2272 169.987 36 166.269 36Z" fill="#CBEDE1"/>
    <path d="M141 84.9894C141 74.5877 131.068 50 116.64 50C103.382 50 93.3697 71.649 93.3697 71.649C93.3697 71.649 88.8279 61.3953 80.3639 61.3953C69.262 61.3953 63 78.129 63 85H141V84.9894Z" fill="#0CC79F"/>
    <path d="M83 57C87.4183 57 91 53.6421 91 49.5C91 45.3579 87.4183 42 83 42C78.5817 42 75 45.3579 75 49.5C75 53.6421 78.5817 57 83 57Z" fill="#FBF9ED"/>
    <path d="M51.262 97.172V107H48.868V97.172H51.262ZM62.9649 99.104C63.9356 99.104 64.7056 99.398 65.2749 99.986C65.8536 100.574 66.1429 101.391 66.1429 102.436V107H63.7629V102.758C63.7629 102.254 63.6276 101.867 63.3569 101.596C63.0956 101.316 62.7316 101.176 62.2649 101.176C61.7982 101.176 61.4296 101.316 61.1589 101.596C60.8976 101.867 60.7669 102.254 60.7669 102.758V107H58.3869V102.758C58.3869 102.254 58.2516 101.867 57.9809 101.596C57.7196 101.316 57.3556 101.176 56.8889 101.176C56.4222 101.176 56.0536 101.316 55.7829 101.596C55.5216 101.867 55.3909 102.254 55.3909 102.758V107H52.9969V99.188H55.3909V100.168C55.6336 99.8413 55.9509 99.5847 56.3429 99.398C56.7349 99.202 57.1782 99.104 57.6729 99.104C58.2609 99.104 58.7836 99.23 59.2409 99.482C59.7076 99.734 60.0716 100.093 60.3329 100.56C60.6036 100.131 60.9722 99.7807 61.4389 99.51C61.9056 99.2393 62.4142 99.104 62.9649 99.104ZM67.3412 103.08C67.3412 102.277 67.4906 101.573 67.7892 100.966C68.0972 100.359 68.5126 99.8927 69.0352 99.566C69.5579 99.2393 70.1412 99.076 70.7852 99.076C71.3359 99.076 71.8166 99.188 72.2272 99.412C72.6472 99.636 72.9692 99.93 73.1932 100.294V99.188H75.5872V107H73.1932V105.894C72.9599 106.258 72.6332 106.552 72.2132 106.776C71.8026 107 71.3219 107.112 70.7712 107.112C70.1366 107.112 69.5579 106.949 69.0352 106.622C68.5126 106.286 68.0972 105.815 67.7892 105.208C67.4906 104.592 67.3412 103.883 67.3412 103.08ZM73.1932 103.094C73.1932 102.497 73.0252 102.025 72.6892 101.68C72.3626 101.335 71.9612 101.162 71.4852 101.162C71.0092 101.162 70.6032 101.335 70.2672 101.68C69.9406 102.016 69.7772 102.483 69.7772 103.08C69.7772 103.677 69.9406 104.153 70.2672 104.508C70.6032 104.853 71.0092 105.026 71.4852 105.026C71.9612 105.026 72.3626 104.853 72.6892 104.508C73.0252 104.163 73.1932 103.691 73.1932 103.094ZM80.2872 99.076C80.8378 99.076 81.3185 99.188 81.7292 99.412C82.1492 99.636 82.4712 99.93 82.6952 100.294V99.188H85.0892V106.986C85.0892 107.705 84.9445 108.353 84.6552 108.932C84.3752 109.52 83.9412 109.987 83.3532 110.332C82.7745 110.677 82.0512 110.85 81.1832 110.85C80.0258 110.85 79.0878 110.575 78.3692 110.024C77.6505 109.483 77.2398 108.745 77.1372 107.812H79.5032C79.5778 108.111 79.7552 108.344 80.0352 108.512C80.3152 108.689 80.6605 108.778 81.0712 108.778C81.5658 108.778 81.9578 108.633 82.2472 108.344C82.5458 108.064 82.6952 107.611 82.6952 106.986V105.88C82.4618 106.244 82.1398 106.543 81.7292 106.776C81.3185 107 80.8378 107.112 80.2872 107.112C79.6432 107.112 79.0598 106.949 78.5372 106.622C78.0145 106.286 77.5992 105.815 77.2912 105.208C76.9925 104.592 76.8432 103.883 76.8432 103.08C76.8432 102.277 76.9925 101.573 77.2912 100.966C77.5992 100.359 78.0145 99.8927 78.5372 99.566C79.0598 99.2393 79.6432 99.076 80.2872 99.076ZM82.6952 103.094C82.6952 102.497 82.5272 102.025 82.1912 101.68C81.8645 101.335 81.4632 101.162 80.9872 101.162C80.5112 101.162 80.1052 101.335 79.7692 101.68C79.4425 102.016 79.2792 102.483 79.2792 103.08C79.2792 103.677 79.4425 104.153 79.7692 104.508C80.1052 104.853 80.5112 105.026 80.9872 105.026C81.4632 105.026 81.8645 104.853 82.1912 104.508C82.5272 104.163 82.6952 103.691 82.6952 103.094ZM94.1851 102.968C94.1851 103.192 94.1711 103.425 94.1431 103.668H88.7251C88.7625 104.153 88.9165 104.527 89.1871 104.788C89.4671 105.04 89.8078 105.166 90.2091 105.166C90.8065 105.166 91.2218 104.914 91.4551 104.41H94.0031C93.8725 104.923 93.6345 105.385 93.2891 105.796C92.9531 106.207 92.5285 106.529 92.0151 106.762C91.5018 106.995 90.9278 107.112 90.2931 107.112C89.5278 107.112 88.8465 106.949 88.2491 106.622C87.6518 106.295 87.1851 105.829 86.8491 105.222C86.5131 104.615 86.3451 103.906 86.3451 103.094C86.3451 102.282 86.5085 101.573 86.8351 100.966C87.1711 100.359 87.6378 99.8927 88.2351 99.566C88.8325 99.2393 89.5185 99.076 90.2931 99.076C91.0491 99.076 91.7211 99.2347 92.3091 99.552C92.8971 99.8693 93.3545 100.322 93.6811 100.91C94.0171 101.498 94.1851 102.184 94.1851 102.968ZM91.7351 102.338C91.7351 101.927 91.5951 101.601 91.3151 101.358C91.0351 101.115 90.6851 100.994 90.2651 100.994C89.8638 100.994 89.5231 101.111 89.2431 101.344C88.9725 101.577 88.8045 101.909 88.7391 102.338H91.7351ZM107.207 107H104.813L100.809 100.938V107H98.4149V97.172H100.809L104.813 103.262V97.172H107.207V107ZM112.498 107.112C111.733 107.112 111.042 106.949 110.426 106.622C109.82 106.295 109.339 105.829 108.984 105.222C108.639 104.615 108.466 103.906 108.466 103.094C108.466 102.291 108.644 101.587 108.998 100.98C109.353 100.364 109.838 99.8927 110.454 99.566C111.07 99.2393 111.761 99.076 112.526 99.076C113.292 99.076 113.982 99.2393 114.598 99.566C115.214 99.8927 115.7 100.364 116.054 100.98C116.409 101.587 116.586 102.291 116.586 103.094C116.586 103.897 116.404 104.606 116.04 105.222C115.686 105.829 115.196 106.295 114.57 106.622C113.954 106.949 113.264 107.112 112.498 107.112ZM112.498 105.04C112.956 105.04 113.343 104.872 113.66 104.536C113.987 104.2 114.15 103.719 114.15 103.094C114.15 102.469 113.992 101.988 113.674 101.652C113.366 101.316 112.984 101.148 112.526 101.148C112.06 101.148 111.672 101.316 111.364 101.652C111.056 101.979 110.902 102.459 110.902 103.094C110.902 103.719 111.052 104.2 111.35 104.536C111.658 104.872 112.041 105.04 112.498 105.04ZM122.21 104.97V107H120.992C120.124 107 119.448 106.79 118.962 106.37C118.477 105.941 118.234 105.245 118.234 104.284V101.176H117.282V99.188H118.234V97.284H120.628V99.188H122.196V101.176H120.628V104.312C120.628 104.545 120.684 104.713 120.796 104.816C120.908 104.919 121.095 104.97 121.356 104.97H122.21ZM132.909 97.172V99.09H128.905V101.162H131.901V103.024H128.905V107H126.511V97.172H132.909ZM137.723 107.112C136.957 107.112 136.267 106.949 135.651 106.622C135.044 106.295 134.563 105.829 134.209 105.222C133.863 104.615 133.691 103.906 133.691 103.094C133.691 102.291 133.868 101.587 134.223 100.98C134.577 100.364 135.063 99.8927 135.679 99.566C136.295 99.2393 136.985 99.076 137.751 99.076C138.516 99.076 139.207 99.2393 139.823 99.566C140.439 99.8927 140.924 100.364 141.279 100.98C141.633 101.587 141.811 102.291 141.811 103.094C141.811 103.897 141.629 104.606 141.265 105.222C140.91 105.829 140.42 106.295 139.795 106.622C139.179 106.949 138.488 107.112 137.723 107.112ZM137.723 105.04C138.18 105.04 138.567 104.872 138.885 104.536C139.211 104.2 139.375 103.719 139.375 103.094C139.375 102.469 139.216 101.988 138.899 101.652C138.591 101.316 138.208 101.148 137.751 101.148C137.284 101.148 136.897 101.316 136.589 101.652C136.281 101.979 136.127 102.459 136.127 103.094C136.127 103.719 136.276 104.2 136.575 104.536C136.883 104.872 137.265 105.04 137.723 105.04ZM150.795 99.188V107H148.401V105.936C148.158 106.281 147.827 106.561 147.407 106.776C146.996 106.981 146.539 107.084 146.035 107.084C145.438 107.084 144.91 106.953 144.453 106.692C143.996 106.421 143.641 106.034 143.389 105.53C143.137 105.026 143.011 104.433 143.011 103.752V99.188H145.391V103.43C145.391 103.953 145.526 104.359 145.797 104.648C146.068 104.937 146.432 105.082 146.889 105.082C147.356 105.082 147.724 104.937 147.995 104.648C148.266 104.359 148.401 103.953 148.401 103.43V99.188H150.795ZM157.274 99.104C158.189 99.104 158.917 99.4027 159.458 100C160.009 100.588 160.284 101.4 160.284 102.436V107H157.904V102.758C157.904 102.235 157.769 101.829 157.498 101.54C157.228 101.251 156.864 101.106 156.406 101.106C155.949 101.106 155.585 101.251 155.314 101.54C155.044 101.829 154.908 102.235 154.908 102.758V107H152.514V99.188H154.908V100.224C155.151 99.8787 155.478 99.608 155.888 99.412C156.299 99.2067 156.761 99.104 157.274 99.104ZM161.472 103.08C161.472 102.277 161.621 101.573 161.92 100.966C162.228 100.359 162.643 99.8927 163.166 99.566C163.689 99.2393 164.272 99.076 164.916 99.076C165.429 99.076 165.896 99.1833 166.316 99.398C166.745 99.6127 167.081 99.902 167.324 100.266V96.64H169.718V107H167.324V105.88C167.1 106.253 166.778 106.552 166.358 106.776C165.947 107 165.467 107.112 164.916 107.112C164.272 107.112 163.689 106.949 163.166 106.622C162.643 106.286 162.228 105.815 161.92 105.208C161.621 104.592 161.472 103.883 161.472 103.08ZM167.324 103.094C167.324 102.497 167.156 102.025 166.82 101.68C166.493 101.335 166.092 101.162 165.616 101.162C165.14 101.162 164.734 101.335 164.398 101.68C164.071 102.016 163.908 102.483 163.908 103.08C163.908 103.677 164.071 104.153 164.398 104.508C164.734 104.853 165.14 105.026 165.616 105.026C166.092 105.026 166.493 104.853 166.82 104.508C167.156 104.163 167.324 103.691 167.324 103.094Z" fill="#0B5243"/>
    </svg>